<svg xmlns="http://www.w3.org/2000/svg" viewBox="0 0 4945.24 2864.2"><defs><style>.cls-1{fill:#0c6;}</style></defs><title>Asset 1</title><g id="Layer_2" data-name="Layer 2"><g id="Layer_5" data-name="Layer 5"><path class="cls-1" d="M2937.74,1409.56H2175.83a215,215,0,0,1,.79,22.54,909.17,909.17,0,0,1-6.33,110.31h763.5c3.16-38,4.35-76.7,4.35-115.85C2938.14,1421,2938.14,1415.1,2937.74,1409.56Zm-849.29,406.07c-9.49,17.79-19.38,35.19-30.45,51.79-55.35,87.38-128.89,157-219.44,209.56-107.94,62.47-232.09,94.1-372.46,94.1-136,0-257.39-31.63-363.36-94.1q-159.54-93.7-250.28-261.35C792,1704.13,761.52,1576,761.52,1432.1s30.45-270.84,90.94-380.76,143.92-196.11,250.28-258.59c106-62.46,227.35-93.7,363.36-93.7,140.37,0,263.33,31.24,369.69,93.7q159,93.72,249.89,258.59c5.93,11.07,11.86,21.75,17,33.21a680.54,680.54,0,0,1,47.84,132.85H2924.3a1334.11,1334.11,0,0,0-24.51-132.85q-47.46-204-154.6-382.73Q2551.84,381,2219.32,190.18,1886.61-.2,1466.1,0,1057.47,0,721.59,190.18,386.49,380.56,193.35,701.82,0,1022.67,0,1426.56q0,403.31,196.11,730.29Q392.43,2483.64,724.75,2674,1056.88,2864.4,1472,2864.2q414.56,0,747.28-190.18,332.71-190.38,525.87-517.17a1350.13,1350.13,0,0,0,128.5-289.43,1256.56,1256.56,0,0,0,33.61-132.85H2124.82A649.05,649.05,0,0,1,2088.45,1815.63Z"/><path class="cls-1" d="M3882.33,1151a66.32,66.32,0,0,1-66.43,66.42H1878.1a66.43,66.43,0,1,1,0-132.85H3815.9A66.33,66.33,0,0,1,3882.33,1151Z"/><path class="cls-1" d="M3882.33,1801a66.32,66.32,0,0,1-66.43,66.42H1878.1a66.43,66.43,0,1,1,0-132.85H3815.9A66.33,66.33,0,0,1,3882.33,1801Z"/><path class="cls-1" d="M3882.33,1476a66.32,66.32,0,0,1-66.43,66.42H1427.36a66.43,66.43,0,1,1,0-132.85H3815.9A66.33,66.33,0,0,1,3882.33,1476Z"/><path class="cls-1" d="M4945.24,1464.7s-237.66-215.41-528.8-213.22c-182.71,1.38-383.48,45-507.53,104.54,30.57,56.57,49.9,116.12,49.9,116.12S3940.38,1532,3910.67,1589c124.93,57.67,326.33,98.24,509,96.87C4710.86,1683.67,4945.24,1464.7,4945.24,1464.7Zm-273.43,2.06a48.85,48.85,0,1,1-49.22-48.48A48.85,48.85,0,0,1,4671.81,1466.76Zm-329.68,2.49a84.68,84.68,0,1,1,85.32,84A84.69,84.69,0,0,1,4342.13,1469.25Z"/><path class="cls-1" d="M4192.54,1201c-35.07-66.77-81.57-119.56-133.74-158.8l-192.16,1.45c53.56,73,67.59,159,49.53,225.91C4007.93,1219.13,4095.84,1208.47,4192.54,1201Z"/><path class="cls-1" d="M4054.8,1908.42c55.85-40.78,105.46-96.84,141.81-168.64-96.8-6.06-184.87-15.4-277.38-64.38,19.74,69,5.44,159-51.81,234.43Z"/></g></g></svg>