<svg id="Layer_1" data-name="Layer 1" xmlns="http://www.w3.org/2000/svg" viewBox="0 0 451.04 69.48"><defs><style>.cls-1{fill:#273246;}.cls-2{fill:#0c6;}.cls-3{fill:#0269fd;}</style></defs><title>VisiBoost</title><path class="cls-1" d="M123.28,29.48a6.47,6.47,0,0,0-9.16,0,6.7,6.7,0,0,0,0,9.16,6.59,6.59,0,0,0,9.16,0,6.84,6.84,0,0,0,0-9.16ZM113,47.2V88.75h4.87l6.48-6.42V47.2Z" transform="translate(-30.99 -22.58)"/><path class="cls-1" d="M159.67,66.38a22.45,22.45,0,0,0-5-2.28q-2.62-.81-5-1.46a16.38,16.38,0,0,1-3.91-1.51,2.66,2.66,0,0,1-1.51-2.4,2.38,2.38,0,0,1,1.34-2.15,7.66,7.66,0,0,1,3.83-.78,12.75,12.75,0,0,1,5.11,1,11.38,11.38,0,0,1,4.26,3.36l6.8-6.8A17.21,17.21,0,0,0,158.63,48a23.31,23.31,0,0,0-9.33-1.8,25,25,0,0,0-3.3.21L133.51,61.9a9.59,9.59,0,0,0,1.29,3.49,10.77,10.77,0,0,0,3.92,3.7,26.27,26.27,0,0,0,5,2.15c1.75.55,3.43,1,5,1.47a14.49,14.49,0,0,1,3.92,1.59A3,3,0,0,1,154.2,77a2.5,2.5,0,0,1-1.42,2.33,9,9,0,0,1-4.17.77,16,16,0,0,1-6.28-1.2,14,14,0,0,1-5-3.62L130.63,82a19.32,19.32,0,0,0,4.91,4.09,26.09,26.09,0,0,0,6.23,2.62,25.8,25.8,0,0,0,6.93,1q7.56,0,12-3.57A11.81,11.81,0,0,0,165,76.45a11.57,11.57,0,0,0-1.5-6.2A12.12,12.12,0,0,0,159.67,66.38Z" transform="translate(-30.99 -22.58)"/><path class="cls-1" d="M183,29.48a6.48,6.48,0,0,0-9.17,0,6.73,6.73,0,0,0,0,9.16,6.61,6.61,0,0,0,9.17,0,6.84,6.84,0,0,0,0-9.16Zm-3.7,17.72-6.58,7.39V88.75h11.35V47.2Z" transform="translate(-30.99 -22.58)"/><path class="cls-1" d="M203.74,28.27l-8.42,11.44v49h11.61V28.27Zm32.91,32.65a18.16,18.16,0,0,0-5.9-4.55,15.7,15.7,0,0,0,4.18-3.45,13.37,13.37,0,0,0,3.14-8.9,14.92,14.92,0,0,0-8.21-13.55,21.11,21.11,0,0,0-10.11-2.2H203.92v9.55h14.45a8.82,8.82,0,0,1,5.81,1.81,6.71,6.71,0,0,1,2.19,5.5,6.61,6.61,0,0,1-2.19,5.42,8.82,8.82,0,0,1-5.81,1.81H203.92v9.46h15.74A9.6,9.6,0,0,1,224.52,63a7.76,7.76,0,0,1,3.06,3.14,9.35,9.35,0,0,1,1,4.39,8.77,8.77,0,0,1-2.36,6.11,8.51,8.51,0,0,1-6.59,2.58H203.92v9.55h16.17a26.59,26.59,0,0,0,7-.85L240.3,70.63A15.58,15.58,0,0,0,236.65,60.92Z" transform="translate(-30.99 -22.58)"/><path class="cls-1" d="M358,66.38a22.25,22.25,0,0,0-5-2.28q-2.62-.81-5-1.46a16.21,16.21,0,0,1-3.91-1.51,2.64,2.64,0,0,1-1.51-2.4,2.37,2.37,0,0,1,1.33-2.15,7.69,7.69,0,0,1,3.83-.78,12.79,12.79,0,0,1,5.12,1,11.38,11.38,0,0,1,4.26,3.36l6.79-6.8A17.11,17.11,0,0,0,357,48a23.31,23.31,0,0,0-9.33-1.8,20.53,20.53,0,0,0-8.52,1.63,12.75,12.75,0,0,0-5.55,4.56,12.19,12.19,0,0,0-1.93,6.88,11.29,11.29,0,0,0,1.5,6.15,10.74,10.74,0,0,0,3.91,3.7,26.63,26.63,0,0,0,5,2.15c1.75.55,3.42,1,5,1.47a14.41,14.41,0,0,1,3.91,1.59A3,3,0,0,1,352.57,77a2.5,2.5,0,0,1-1.42,2.33,9,9,0,0,1-4.17.77,15.94,15.94,0,0,1-6.28-1.2,13.89,13.89,0,0,1-5-3.62L329,82a19.45,19.45,0,0,0,4.9,4.09,26,26,0,0,0,6.24,2.62,25.67,25.67,0,0,0,6.92,1,25.21,25.21,0,0,0,5.63-.59l10.7-13.58a10.8,10.8,0,0,0-1.49-5.28A11.93,11.93,0,0,0,358,66.38Z" transform="translate(-30.99 -22.58)"/><path class="cls-1" d="M377.17,44.52V88.75h11.27V30ZM375.1,47.2l-7.65,9.88h30.71V47.2Z" transform="translate(-30.99 -22.58)"/><path class="cls-1" d="M423.45,89.61a23.58,23.58,0,0,1-11.61-2.8,22,22,0,0,1-8.13-29.93,21.51,21.51,0,0,1,7.87-7.75,21.79,21.79,0,0,1,11.1-2.88A20.61,20.61,0,0,1,433.3,49a19.53,19.53,0,0,1,7.23,7.4A21.38,21.38,0,0,1,443.15,67a19.61,19.61,0,0,1-.13,2.28,21.09,21.09,0,0,1-.47,2.63L407.62,72V63.54l29.68-.08L432.74,67a16.49,16.49,0,0,0-1.33-6.19A8.62,8.62,0,0,0,428.05,57a10.14,10.14,0,0,0-5.37-1.33,11,11,0,0,0-5.85,1.51A9.83,9.83,0,0,0,413,61.35a14.36,14.36,0,0,0-1.33,6.41,14.31,14.31,0,0,0,1.42,6.58,10,10,0,0,0,4.08,4.3,12.33,12.33,0,0,0,6.2,1.51,14.78,14.78,0,0,0,5.76-1.08,12.13,12.13,0,0,0,4.47-3.22l6.63,6.62a19.21,19.21,0,0,1-7.36,5.33A24.21,24.21,0,0,1,423.45,89.61Z" transform="translate(-30.99 -22.58)"/><path class="cls-1" d="M458,47.2l-7.75,9.47V88.75h11.27V47.2Zm19.7.13a14.18,14.18,0,0,0-5.42-1q-7,0-10.67,4.43l-.09.11q-3.63,4.41-4.38,12l4.38,2.92c0-3.1.76-5.4,2.28-6.92a8,8,0,0,1,5.9-2.28,8.52,8.52,0,0,1,3.05.51A6,6,0,0,1,475,58.64l7-8.09A11.94,11.94,0,0,0,477.65,47.33Z" transform="translate(-30.99 -22.58)"/><path class="cls-2" d="M292.44,70H280.91c0,.12,0,.23,0,.34a12.92,12.92,0,0,1-.1,1.67h11.56c.05-.57.07-1.16.07-1.75A2.35,2.35,0,0,0,292.44,70Zm-12.85,6.15c-.15.27-.3.53-.47.78a9.34,9.34,0,0,1-3.32,3.17,11,11,0,0,1-5.63,1.43,10.59,10.59,0,0,1-5.5-1.43,9.94,9.94,0,0,1-3.79-4,12,12,0,0,1-1.38-5.81,11.71,11.71,0,0,1,1.38-5.76,10,10,0,0,1,3.79-3.91,10.58,10.58,0,0,1,5.5-1.42,10.78,10.78,0,0,1,5.59,1.42,10.08,10.08,0,0,1,3.78,3.91c.09.17.18.33.26.5a10,10,0,0,1,.72,2h11.72c-.09-.68-.22-1.35-.37-2a20,20,0,0,0-2.34-5.79,21.81,21.81,0,0,0-8-7.74,23.75,23.75,0,0,0-22.67,0,21.55,21.55,0,0,0-8,7.74,22,22,0,0,0,0,22,21.85,21.85,0,0,0,8,7.83,23.67,23.67,0,0,0,22.63,0,21.59,21.59,0,0,0,8-7.83A20.38,20.38,0,0,0,291.47,77a19.71,19.71,0,0,0,.51-2H280.14A12.42,12.42,0,0,1,279.59,76.19Z" transform="translate(-30.99 -22.58)"/><path class="cls-2" d="M306.74,66.13a1,1,0,0,1-1,1H276.4a1,1,0,0,1,0-2h29.33A1,1,0,0,1,306.74,66.13Z" transform="translate(-30.99 -22.58)"/><path class="cls-2" d="M306.74,76a1,1,0,0,1-1,1H276.4a1,1,0,0,1,0-2h29.33A1,1,0,0,1,306.74,76Z" transform="translate(-30.99 -22.58)"/><path class="cls-2" d="M306.74,71.05a1,1,0,0,1-1,1H269.58a1,1,0,1,1,0-2h36.15A1,1,0,0,1,306.74,71.05Z" transform="translate(-30.99 -22.58)"/><path class="cls-2" d="M322.83,70.88s-3.6-3.26-8-3.23a19.83,19.83,0,0,0-7.68,1.58A12.9,12.9,0,0,1,307.9,71a11.9,11.9,0,0,1-.73,1.77,19.68,19.68,0,0,0,7.7,1.46C319.28,74.19,322.83,70.88,322.83,70.88Zm-4.14,0a.74.74,0,0,1-.74.74.73.73,0,0,1-.74-.73.74.74,0,0,1,.73-.75A.75.75,0,0,1,318.69,70.91Zm-5,0A1.28,1.28,0,1,1,315,72.22,1.28,1.28,0,0,1,313.7,71Z" transform="translate(-30.99 -22.58)"/><path class="cls-2" d="M311.43,66.89a7.11,7.11,0,0,0-2-2.41l-2.91,0a4.13,4.13,0,0,1,.75,3.42A9.65,9.65,0,0,1,311.43,66.89Z" transform="translate(-30.99 -22.58)"/><path class="cls-2" d="M309.35,77.59A7,7,0,0,0,311.49,75a9.65,9.65,0,0,1-4.19-1,4.11,4.11,0,0,1-.79,3.54Z" transform="translate(-30.99 -22.58)"/><path class="cls-3" d="M54.41,38.94,46.27,27.43a.79.79,0,0,0-.59-.34.77.77,0,0,0-.63.24L31.22,41.52a.78.78,0,0,0-.07,1l8.08,10.82a.79.79,0,0,0,.58.31h.06a.76.76,0,0,0,.55-.23L54.31,40A.8.8,0,0,0,54.41,38.94Z" transform="translate(-30.99 -22.58)"/><path class="cls-3" d="M106.75,33.58a2,2,0,0,1-.4,1.19l-3.08,4.11L93.88,52.25C83,67.91,68.48,88.23,67.55,89.53a.83.83,0,0,1-.64.34h0a.81.81,0,0,1-.64-.32L45.56,61.84a.79.79,0,0,1,.06-1L58.91,47a.79.79,0,0,1,.63-.25.81.81,0,0,1,.6.34l6.43,9.1L77.44,41.94l1-1.34,9.36-12.3s0,0,0,0l.8-1.06c0-.06.09-.11.13-.16h0l.07-.07a1.85,1.85,0,0,1,3.11,1.36,1.76,1.76,0,0,1-.28,1h0c0,.06-.11.12-.16.19L82.74,41.12a1.84,1.84,0,1,0,3,2.21L94.42,31.7a.59.59,0,0,0,.1-.17l1-1.26a1.84,1.84,0,0,1,3.32,1.11,1.83,1.83,0,0,1-.37,1.11L97.31,34h0l-7,9.38a1.85,1.85,0,0,0-.37,1.11,1.84,1.84,0,0,0,3.32,1.11l7-9.25,0,0,3-4a2,2,0,0,1,3.57,1.19Z" transform="translate(-30.99 -22.58)"/><rect class="cls-3" x="105.59" y="25.97" width="6.9" height="3.96" rx="1.98" transform="translate(-9.77 75.79) rotate(-53.1)"/><rect class="cls-3" x="90.53" y="22.88" width="4.45" height="3.69" rx="1.84" transform="translate(-13.7 61.48) rotate(-53.1)"/><rect class="cls-3" x="97.8" y="24.78" width="5.44" height="3.69" rx="1.84" transform="translate(-12.12 68.44) rotate(-53.1)"/></svg>