<?xml version="1.0" encoding="utf-8"?>
<!-- Generator: Adobe Illustrator 23.0.5, SVG Export Plug-In . SVG Version: 6.00 Build 0)  -->
<svg version="1.1" id="Layer_1" xmlns="http://www.w3.org/2000/svg" xmlns:xlink="http://www.w3.org/1999/xlink" x="0px" y="0px"
	 viewBox="0 0 211.1 57" style="enable-background:new 0 0 211.1 57;" xml:space="preserve">
<style type="text/css">
	.st0{fill:#D9232D;}
	.st1{clip-path:url(#SVGID_2_);}
	.st2{fill:#515D6A;}
</style>
<path class="st0" d="M32.4,26.5C32.4,26.6,32.4,26.6,32.4,26.5l0,8.5H23c-4.6,0-9-2.2-11.8-5.8l-1.5-2c-0.2-0.3,0-0.7,0.3-0.7H32.4"
	/>
<path class="st0" d="M32.4,37.3c0,0.1,0,0.1,0,0.2c0.2,3,1.1,5.8,2.4,8.3h-4.4c-4.5,0-8.8-2.1-11.5-5.7l-1.8-2.3
	c-0.1-0.2,0-0.4,0.2-0.4H32.4"/>
<g>
	<defs>
		<rect id="SVGID_1_" x="1.6" y="2.4" width="71.8" height="52.9"/>
	</defs>
	<clipPath id="SVGID_2_">
		<use xlink:href="#SVGID_1_"  style="overflow:visible;"/>
	</clipPath>
	<g class="st1">
		<path class="st0" d="M68,21.4c-3.9-3.9-8.5-5.8-14-5.8H42.9c0,0-0.1,0-0.1-0.1V2.5c0,0,0-0.1-0.1-0.1h-8.3c0,0-0.1,0-0.1,0.1v13.1
			c0,0,0,0.1-0.1,0.1H2.4c-0.5,0-0.7,0.5-0.4,0.9l3.1,4c1.7,2.2,4.4,3.6,7.2,3.6h41c0.3,0,0.6,0,0.9,0c2.6,0,4.9,0.8,6.8,2.3
			c0,0,1.1,1,1.2,1c2.2,2.2,3.3,4.9,3.3,8c0,0.6,0,1.2-0.1,1.8c-0.3,2.4-1.4,4.4-3.2,6.2c-1,1-2,1.7-3.2,2.3c-1.4,0.7-3,1-4.8,1
			c-1.7,0-3.3-0.3-4.8-1c-1.2-0.5-2.2-1.3-3.2-2.3c-1.8-1.8-2.8-3.8-3.2-6.2c-0.1-0.6-0.1-1.2-0.1-1.8c0-0.2,0-0.3,0-0.5
			c0.1-2.9,1.2-5.4,3.3-7.5l0,0c0.4-0.4,0.1-1-0.4-1H34.4c0,0-0.1,0-0.1,0.1v8.9c0,0.6,0,1.2,0.1,1.8c0.3,3.1,1.2,5.9,2.8,8.5
			c0.8,1.3,1.8,2.5,3,3.7c3.9,3.8,8.5,5.8,13.9,5.8s10.1-1.9,14-5.8c3.8-3.9,5.8-8.5,5.8-14S71.8,25.2,68,21.4"/>
	</g>
</g>
<g>
	<g transform="translate(67.275502, 87.801299)">
		<g>
			<path class="st0" d="M19.3-55.1c-1.2,0-2.3-0.1-3.2-0.4c-1-0.3-1.9-0.8-2.7-1.6c-0.2-0.2-0.4-0.4-0.5-0.6
				c-0.1-0.2-0.2-0.5-0.2-0.7c0-0.4,0.1-0.7,0.4-1c0.3-0.3,0.6-0.5,1.1-0.5c0.3,0,0.6,0.1,0.9,0.3c0.6,0.5,1.3,0.9,1.9,1.2
				c0.6,0.3,1.4,0.4,2.4,0.4c0.6,0,1.2-0.1,1.7-0.3c0.5-0.2,0.9-0.4,1.3-0.8c0.3-0.3,0.5-0.7,0.5-1.1c0-0.5-0.2-0.9-0.5-1.3
				c-0.3-0.4-0.8-0.7-1.4-0.9c-0.6-0.3-1.4-0.4-2.4-0.6c-0.9-0.1-1.7-0.3-2.4-0.6c-0.7-0.3-1.3-0.7-1.8-1.1
				c-0.5-0.4-0.8-0.9-1.1-1.5c-0.2-0.6-0.4-1.2-0.4-2c0-1.1,0.3-2.1,0.9-2.8c0.6-0.8,1.3-1.4,2.3-1.8c1-0.4,2-0.6,3.2-0.6
				c1.1,0,2.1,0.2,3.1,0.5c0.9,0.3,1.7,0.8,2.3,1.3c0.5,0.4,0.7,0.9,0.7,1.4c0,0.4-0.1,0.7-0.4,1c-0.3,0.3-0.6,0.5-1,0.5
				c-0.3,0-0.5-0.1-0.7-0.2c-0.3-0.2-0.6-0.5-1.1-0.7c-0.5-0.2-0.9-0.4-1.5-0.5c-0.5-0.2-1-0.2-1.4-0.2c-0.7,0-1.3,0.1-1.8,0.3
				c-0.5,0.2-0.9,0.4-1.1,0.8c-0.3,0.3-0.4,0.7-0.4,1.1c0,0.5,0.1,0.9,0.4,1.3c0.3,0.3,0.7,0.6,1.3,0.8c0.6,0.2,1.2,0.4,2,0.5
				c1,0.2,1.9,0.4,2.7,0.7c0.8,0.3,1.4,0.6,1.9,1c0.5,0.4,0.9,0.9,1.1,1.5c0.3,0.6,0.4,1.3,0.4,2.2c0,1.1-0.3,2.1-0.9,2.9
				c-0.6,0.8-1.4,1.4-2.4,1.8C21.5-55.3,20.4-55.1,19.3-55.1z"/>
		</g>
	</g>
</g>
<g>
	<g transform="translate(78.692733, 87.801299)">
		<g>
			<path class="st0" d="M18.9-73.2c0.2,0,0.5,0.1,0.8,0.2c0.3,0.1,0.5,0.3,0.6,0.5l6.2,9.5L25.2-63l6.4-9.5c0.3-0.5,0.7-0.7,1.3-0.7
				c0.4,0,0.8,0.1,1.1,0.4c0.3,0.3,0.5,0.7,0.5,1.1v14.8c0,0.4-0.1,0.8-0.4,1.1c-0.3,0.3-0.7,0.4-1.1,0.4c-0.5,0-0.9-0.1-1.2-0.4
				c-0.3-0.3-0.4-0.7-0.4-1.1v-12l1,0.2L27-60.7c-0.2,0.2-0.3,0.3-0.6,0.5c-0.2,0.1-0.5,0.2-0.7,0.2c-0.2,0-0.4,0-0.7-0.2
				c-0.2-0.1-0.4-0.3-0.6-0.5l-4.9-7.7l0.7-1.4v12.9c0,0.4-0.1,0.8-0.4,1.1c-0.3,0.3-0.6,0.4-1.1,0.4c-0.4,0-0.8-0.1-1.1-0.4
				c-0.3-0.3-0.4-0.7-0.4-1.1v-14.8c0-0.4,0.2-0.8,0.5-1.1C18.1-73.1,18.5-73.2,18.9-73.2z"/>
		</g>
	</g>
</g>
<g>
	<g transform="translate(94.35556, 87.801299)">
		<g>
			<path class="st0" d="M25.8-56.9c0,0.4-0.2,0.8-0.5,1.1c-0.3,0.3-0.7,0.4-1.1,0.4c-0.5,0-0.9-0.1-1.2-0.4
				c-0.3-0.3-0.4-0.7-0.4-1.1v-14.7c0-0.4,0.2-0.8,0.5-1.1c0.3-0.3,0.7-0.5,1.2-0.5c0.4,0,0.8,0.2,1.1,0.5c0.3,0.3,0.5,0.7,0.5,1.1
				V-56.9z"/>
		</g>
	</g>
</g>
<g>
	<g transform="translate(99.614753, 87.801299)">
	</g>
</g>
<g>
	<g transform="translate(104.969564, 87.801299)">
		<g>
			<path class="st0" d="M31.8-55.1c-1.2,0-2.3-0.1-3.2-0.4c-1-0.3-1.9-0.8-2.7-1.6c-0.2-0.2-0.4-0.4-0.5-0.6
				c-0.1-0.2-0.2-0.5-0.2-0.7c0-0.4,0.1-0.7,0.4-1c0.3-0.3,0.6-0.5,1.1-0.5c0.3,0,0.6,0.1,0.9,0.3c0.6,0.5,1.3,0.9,1.9,1.2
				c0.6,0.3,1.4,0.4,2.4,0.4c0.6,0,1.2-0.1,1.7-0.3c0.5-0.2,0.9-0.4,1.3-0.8c0.3-0.3,0.5-0.7,0.5-1.1c0-0.5-0.2-0.9-0.5-1.3
				c-0.3-0.4-0.8-0.7-1.4-0.9c-0.6-0.3-1.4-0.4-2.4-0.6c-0.9-0.1-1.7-0.3-2.4-0.6c-0.7-0.3-1.3-0.7-1.8-1.1
				c-0.5-0.4-0.8-0.9-1.1-1.5c-0.2-0.6-0.4-1.2-0.4-2c0-1.1,0.3-2.1,0.9-2.8c0.6-0.8,1.3-1.4,2.3-1.8c1-0.4,2-0.6,3.2-0.6
				c1.1,0,2.1,0.2,3.1,0.5c0.9,0.3,1.7,0.8,2.3,1.3c0.5,0.4,0.7,0.9,0.7,1.4c0,0.4-0.1,0.7-0.4,1c-0.3,0.3-0.6,0.5-1,0.5
				c-0.3,0-0.5-0.1-0.7-0.2c-0.3-0.2-0.6-0.5-1.1-0.7c-0.5-0.2-0.9-0.4-1.5-0.5c-0.5-0.2-1-0.2-1.4-0.2c-0.7,0-1.3,0.1-1.8,0.3
				c-0.5,0.2-0.9,0.4-1.1,0.8c-0.3,0.3-0.4,0.7-0.4,1.1c0,0.5,0.1,0.9,0.4,1.3c0.3,0.3,0.7,0.6,1.3,0.8c0.6,0.2,1.2,0.4,2,0.5
				c1,0.2,1.9,0.4,2.7,0.7c0.8,0.3,1.4,0.6,1.9,1c0.5,0.4,0.9,0.9,1.1,1.5c0.3,0.6,0.4,1.3,0.4,2.2c0,1.1-0.3,2.1-0.9,2.9
				c-0.6,0.8-1.4,1.4-2.4,1.8C34.1-55.3,33-55.1,31.8-55.1z"/>
		</g>
	</g>
</g>
<g>
	<g transform="translate(116.386795, 87.801299)">
		<g>
			<path class="st0" d="M46.3-64.3c0,1.3-0.2,2.5-0.6,3.6c-0.4,1.1-1,2.1-1.8,2.9c-0.8,0.8-1.7,1.5-2.8,2c-1.1,0.5-2.2,0.7-3.5,0.7
				c-1.3,0-2.4-0.2-3.5-0.7c-1-0.5-2-1.1-2.7-2c-0.8-0.8-1.4-1.8-1.8-2.9C29.2-61.8,29-63,29-64.3c0-1.3,0.2-2.5,0.6-3.6
				c0.4-1.1,1-2.1,1.8-2.9c0.8-0.8,1.7-1.5,2.7-2c1.1-0.5,2.2-0.7,3.5-0.7c1.3,0,2.4,0.2,3.5,0.7c1.1,0.5,2,1.1,2.8,2
				c0.8,0.8,1.4,1.8,1.8,2.9C46.1-66.7,46.3-65.5,46.3-64.3z M43-64.3c0-1.1-0.2-2.2-0.7-3.1c-0.5-0.9-1.1-1.7-1.9-2.2
				c-0.8-0.5-1.7-0.8-2.8-0.8c-1.1,0-2,0.3-2.8,0.8c-0.8,0.5-1.4,1.3-1.9,2.2c-0.4,0.9-0.7,2-0.7,3.1c0,1.1,0.2,2.2,0.7,3.1
				c0.5,0.9,1.1,1.6,1.9,2.2c0.8,0.5,1.7,0.8,2.8,0.8c1.1,0,2-0.3,2.8-0.8c0.8-0.5,1.4-1.3,1.9-2.2C42.8-62.1,43-63.1,43-64.3z"/>
		</g>
	</g>
</g>
<g>
	<g transform="translate(130.902167, 87.801299)">
		<g>
			<path class="st0" d="M36.4-55.3c-0.5,0-0.9-0.1-1.2-0.4c-0.3-0.3-0.4-0.7-0.4-1.1v-14.7c0-0.4,0.1-0.8,0.4-1.1
				c0.3-0.3,0.7-0.5,1.1-0.5h8.3c0.4,0,0.8,0.1,1.1,0.4c0.3,0.3,0.5,0.6,0.5,1.1c0,0.4-0.2,0.7-0.5,1c-0.3,0.3-0.7,0.4-1.1,0.4h-6.9
				l0.2-0.3v5.1l-0.2-0.3h5.7c0.4,0,0.8,0.1,1.1,0.4c0.3,0.3,0.5,0.6,0.5,1.1c0,0.4-0.2,0.7-0.5,1c-0.3,0.3-0.7,0.4-1.1,0.4h-5.7
				l0.2-0.2v6.2c0,0.4-0.2,0.8-0.5,1.1C37.1-55.5,36.8-55.3,36.4-55.3z"/>
		</g>
	</g>
</g>
<g>
	<g transform="translate(141.650048, 87.801299)">
		<g>
			<path class="st0" d="M44.4-55.3c-0.5,0-0.9-0.1-1.2-0.4c-0.3-0.3-0.5-0.7-0.5-1.1v-14.8h3.3v14.8c0,0.4-0.2,0.8-0.5,1.1
				C45.3-55.5,44.9-55.3,44.4-55.3z M38.7-70.3c-0.4,0-0.8-0.1-1.1-0.4c-0.3-0.3-0.4-0.6-0.4-1.1c0-0.4,0.1-0.8,0.4-1.1
				c0.3-0.3,0.7-0.4,1.1-0.4h11.3c0.4,0,0.8,0.1,1.1,0.4c0.3,0.3,0.5,0.6,0.5,1.1c0,0.4-0.2,0.8-0.5,1.1c-0.3,0.3-0.7,0.4-1.1,0.4
				H38.7z"/>
		</g>
	</g>
</g>
<g>
	<g transform="translate(153.621887, 87.801299)">
		<g>
			<path class="st0" d="M48.1-55.1c-1.2,0-2.3-0.1-3.2-0.4c-1-0.3-1.9-0.8-2.7-1.6c-0.2-0.2-0.4-0.4-0.5-0.6
				c-0.1-0.2-0.2-0.5-0.2-0.7c0-0.4,0.1-0.7,0.4-1c0.3-0.3,0.6-0.5,1.1-0.5c0.3,0,0.6,0.1,0.9,0.3c0.6,0.5,1.3,0.9,1.9,1.2
				c0.6,0.3,1.4,0.4,2.4,0.4c0.6,0,1.2-0.1,1.7-0.3c0.5-0.2,0.9-0.4,1.3-0.8c0.3-0.3,0.5-0.7,0.5-1.1c0-0.5-0.2-0.9-0.5-1.3
				c-0.3-0.4-0.8-0.7-1.4-0.9c-0.6-0.3-1.4-0.4-2.4-0.6c-0.9-0.1-1.7-0.3-2.4-0.6c-0.7-0.3-1.3-0.7-1.8-1.1
				c-0.5-0.4-0.8-0.9-1.1-1.5c-0.2-0.6-0.4-1.2-0.4-2c0-1.1,0.3-2.1,0.9-2.8c0.6-0.8,1.3-1.4,2.3-1.8c1-0.4,2-0.6,3.2-0.6
				c1.1,0,2.1,0.2,3.1,0.5c0.9,0.3,1.7,0.8,2.3,1.3c0.5,0.4,0.7,0.9,0.7,1.4c0,0.4-0.1,0.7-0.4,1c-0.3,0.3-0.6,0.5-1,0.5
				c-0.3,0-0.5-0.1-0.7-0.2c-0.3-0.2-0.6-0.5-1.1-0.7c-0.5-0.2-0.9-0.4-1.5-0.5c-0.5-0.2-1-0.2-1.4-0.2c-0.7,0-1.3,0.1-1.8,0.3
				c-0.5,0.2-0.9,0.4-1.1,0.8c-0.3,0.3-0.4,0.7-0.4,1.1c0,0.5,0.1,0.9,0.4,1.3c0.3,0.3,0.7,0.6,1.3,0.8c0.6,0.2,1.2,0.4,2,0.5
				c1,0.2,1.9,0.4,2.7,0.7c0.8,0.3,1.4,0.6,1.9,1c0.5,0.4,0.9,0.9,1.1,1.5c0.3,0.6,0.4,1.3,0.4,2.2c0,1.1-0.3,2.1-0.9,2.9
				c-0.6,0.8-1.4,1.4-2.4,1.8C50.3-55.3,49.2-55.1,48.1-55.1z"/>
		</g>
	</g>
</g>
<g>
	<g transform="translate(66.864404, 98.502907)">
		<g>
			<path class="st2" d="M15.1-58.2c0.5,0,0.9,0.1,1.2,0.4c0.3,0.3,0.4,0.7,0.4,1.2c0,0.3-0.1,0.5-0.2,0.7c-0.1,0.2-0.3,0.4-0.5,0.6
				c-0.2,0.1-0.5,0.2-0.8,0.2l0-0.2c0.2,0,0.5,0,0.7,0.1c0.2,0.1,0.4,0.2,0.6,0.3c0.2,0.1,0.3,0.3,0.4,0.5c0.1,0.2,0.2,0.5,0.2,0.8
				c0,0.3-0.1,0.6-0.2,0.8c-0.1,0.2-0.3,0.4-0.4,0.5c-0.2,0.1-0.4,0.2-0.6,0.3c-0.2,0.1-0.5,0.1-0.7,0.1h-2.5c-0.1,0-0.1,0-0.2-0.1
				c-0.1-0.1-0.1-0.1-0.1-0.2v-5.9c0-0.1,0-0.1,0.1-0.2c0.1-0.1,0.1-0.1,0.2-0.1H15.1z M15-57.7h-2.1l0.1-0.2v2.6l-0.1-0.1H15
				c0.3,0,0.6-0.1,0.8-0.3c0.2-0.2,0.3-0.5,0.3-0.9c0-0.3-0.1-0.6-0.3-0.8C15.6-57.6,15.3-57.7,15-57.7z M15-54.8h-2.1l0-0.1v2.6
				l-0.1-0.1h2.2c0.4,0,0.7-0.1,1-0.3c0.3-0.2,0.4-0.5,0.4-1c0-0.3-0.1-0.5-0.2-0.7c-0.1-0.2-0.3-0.3-0.5-0.4
				C15.5-54.8,15.3-54.8,15-54.8z"/>
		</g>
	</g>
</g>
<g>
	<g transform="translate(71.361387, 98.502907)">
		<g>
			<path class="st2" d="M14-51.8c-0.1,0-0.2,0-0.2-0.1c0-0.1-0.1-0.1-0.1-0.2v-4.1c0-0.1,0-0.2,0.1-0.2c0.1-0.1,0.1-0.1,0.2-0.1
				c0.1,0,0.1,0,0.2,0.1c0.1,0.1,0.1,0.1,0.1,0.2v1.4l-0.1,0c0-0.2,0.1-0.4,0.1-0.6c0.1-0.2,0.2-0.4,0.4-0.6
				c0.2-0.2,0.3-0.3,0.5-0.4c0.2-0.1,0.5-0.2,0.7-0.2c0.1,0,0.2,0,0.3,0.1c0.1,0,0.2,0.1,0.2,0.2c0,0.1,0,0.2-0.1,0.2
				c-0.1,0-0.1,0.1-0.2,0.1c-0.1,0-0.1,0-0.2,0c-0.1,0-0.2-0.1-0.3-0.1c-0.2,0-0.4,0.1-0.5,0.2c-0.2,0.1-0.3,0.2-0.5,0.4
				c-0.1,0.2-0.3,0.4-0.3,0.6c-0.1,0.2-0.1,0.4-0.1,0.6v2.3c0,0.1,0,0.1-0.1,0.2C14.1-51.8,14.1-51.8,14-51.8z"/>
		</g>
	</g>
</g>
<g>
	<g transform="translate(74.020887, 98.502907)">
		<g>
			<path class="st2" d="M15.1-52c0,0.1,0,0.1-0.1,0.2c-0.1,0.1-0.1,0.1-0.2,0.1c-0.1,0-0.1,0-0.2-0.1c-0.1-0.1-0.1-0.1-0.1-0.2v-4.3
				c0-0.1,0-0.1,0.1-0.2c0.1-0.1,0.1-0.1,0.2-0.1c0.1,0,0.2,0,0.2,0.1c0.1,0.1,0.1,0.1,0.1,0.2V-52z M14.9-57.2
				c-0.1,0-0.2,0-0.3-0.1c-0.1-0.1-0.1-0.1-0.1-0.3v-0.1c0-0.1,0-0.2,0.1-0.3c0.1-0.1,0.2-0.1,0.3-0.1s0.2,0,0.3,0.1
				c0.1,0.1,0.1,0.1,0.1,0.3v0.1c0,0.1,0,0.2-0.1,0.3C15.1-57.2,15-57.2,14.9-57.2z"/>
		</g>
	</g>
</g>
<g>
	<g transform="translate(75.499161, 98.502907)">
		<g>
			<path class="st2" d="M17.3-56.6c0.4,0,0.7,0.1,1,0.3c0.3,0.2,0.4,0.4,0.5,0.6c0.1,0.3,0.2,0.6,0.2,0.9v2.7c0,0.1,0,0.1-0.1,0.2
				c-0.1,0.1-0.1,0.1-0.2,0.1c-0.1,0-0.2,0-0.2-0.1c-0.1-0.1-0.1-0.1-0.1-0.2v-2.7c0-0.3,0-0.5-0.1-0.7c-0.1-0.2-0.2-0.4-0.4-0.5
				c-0.2-0.1-0.4-0.2-0.7-0.2c-0.3,0-0.5,0.1-0.8,0.2c-0.2,0.1-0.4,0.3-0.6,0.5c-0.2,0.2-0.2,0.4-0.2,0.7v2.7c0,0.1,0,0.1-0.1,0.2
				c-0.1,0.1-0.1,0.1-0.2,0.1c-0.1,0-0.2,0-0.2-0.1c0-0.1-0.1-0.1-0.1-0.2v-4.1c0-0.1,0-0.2,0.1-0.2c0.1-0.1,0.1-0.1,0.2-0.1
				c0.1,0,0.1,0,0.2,0.1c0.1,0.1,0.1,0.1,0.1,0.2v0.8l-0.2,0.3c0-0.2,0.1-0.4,0.2-0.6c0.1-0.2,0.3-0.3,0.4-0.5
				c0.2-0.2,0.4-0.3,0.6-0.4C16.9-56.5,17.1-56.6,17.3-56.6z"/>
		</g>
	</g>
</g>
<g>
	<g transform="translate(79.491873, 98.502907)">
		<g>
			<path class="st2" d="M18.4-56.6c0.3,0,0.5,0.1,0.8,0.1c0.2,0.1,0.4,0.2,0.6,0.4c0.2,0.1,0.3,0.3,0.4,0.5c0.1,0.2,0.1,0.3,0.1,0.5
				l-0.2-0.2v-0.9c0-0.1,0-0.2,0.1-0.2c0.1-0.1,0.1-0.1,0.2-0.1c0.1,0,0.1,0,0.2,0.1c0.1,0.1,0.1,0.1,0.1,0.2v4
				c0,0.5-0.1,0.9-0.3,1.3c-0.2,0.3-0.5,0.6-0.8,0.8c-0.3,0.2-0.7,0.3-1.2,0.3c-0.2,0-0.5,0-0.7-0.1c-0.2-0.1-0.4-0.1-0.6-0.2
				s-0.3-0.2-0.3-0.3c-0.1-0.1-0.1-0.1-0.1-0.2c0,0,0-0.1,0.1-0.1c0.1,0,0.1-0.1,0.2,0c0.1,0,0.2,0.1,0.3,0.1c0.1,0,0.2,0,0.3,0.1
				c0.1,0,0.2,0.1,0.4,0.1c0.1,0,0.3,0,0.5,0c0.6,0,1-0.2,1.3-0.5c0.3-0.3,0.5-0.7,0.5-1.3V-53l0.1,0c-0.1,0.2-0.1,0.4-0.3,0.6
				c-0.1,0.2-0.3,0.3-0.5,0.4c-0.2,0.1-0.3,0.2-0.5,0.3c-0.2,0.1-0.4,0.1-0.6,0.1c-0.4,0-0.8-0.1-1.2-0.3c-0.3-0.2-0.6-0.5-0.8-0.9
				c-0.2-0.4-0.3-0.8-0.3-1.3c0-0.5,0.1-0.9,0.3-1.3c0.2-0.4,0.5-0.7,0.8-0.9C17.6-56.5,18-56.6,18.4-56.6z M18.4-56.1
				c-0.3,0-0.6,0.1-0.9,0.3c-0.3,0.2-0.5,0.4-0.6,0.7c-0.1,0.3-0.2,0.6-0.2,1c0,0.4,0.1,0.7,0.2,1c0.2,0.3,0.4,0.5,0.6,0.7
				c0.3,0.2,0.6,0.3,0.9,0.3c0.3,0,0.6-0.1,0.9-0.3c0.3-0.2,0.5-0.4,0.6-0.7c0.2-0.3,0.3-0.6,0.3-1c0-0.4-0.1-0.7-0.3-1
				c-0.2-0.3-0.4-0.5-0.6-0.7C19.1-56,18.8-56.1,18.4-56.1z"/>
		</g>
	</g>
</g>
<g>
	<g transform="translate(83.802343, 98.502907)">
		<g>
			<path class="st2" d="M18.4-52c0,0.1,0,0.1-0.1,0.2c-0.1,0.1-0.1,0.1-0.2,0.1c-0.1,0-0.1,0-0.2-0.1c-0.1-0.1-0.1-0.1-0.1-0.2v-4.3
				c0-0.1,0-0.1,0.1-0.2c0.1-0.1,0.1-0.1,0.2-0.1c0.1,0,0.2,0,0.2,0.1c0.1,0.1,0.1,0.1,0.1,0.2V-52z M18.1-57.2
				c-0.1,0-0.2,0-0.3-0.1c-0.1-0.1-0.1-0.1-0.1-0.3v-0.1c0-0.1,0-0.2,0.1-0.3c0.1-0.1,0.2-0.1,0.3-0.1s0.2,0,0.3,0.1
				c0.1,0.1,0.1,0.1,0.1,0.3v0.1c0,0.1,0,0.2-0.1,0.3C18.3-57.2,18.3-57.2,18.1-57.2z"/>
		</g>
	</g>
</g>
<g>
	<g transform="translate(85.280616, 98.502907)">
		<g>
			<path class="st2" d="M20.6-56.6c0.4,0,0.7,0.1,1,0.3c0.3,0.2,0.4,0.4,0.5,0.6c0.1,0.3,0.2,0.6,0.2,0.9v2.7c0,0.1,0,0.1-0.1,0.2
				c-0.1,0.1-0.1,0.1-0.2,0.1c-0.1,0-0.2,0-0.2-0.1c-0.1-0.1-0.1-0.1-0.1-0.2v-2.7c0-0.3,0-0.5-0.1-0.7c-0.1-0.2-0.2-0.4-0.4-0.5
				c-0.2-0.1-0.4-0.2-0.7-0.2c-0.3,0-0.5,0.1-0.8,0.2c-0.2,0.1-0.4,0.3-0.6,0.5c-0.2,0.2-0.2,0.4-0.2,0.7v2.7c0,0.1,0,0.1-0.1,0.2
				c-0.1,0.1-0.1,0.1-0.2,0.1c-0.1,0-0.2,0-0.2-0.1c0-0.1-0.1-0.1-0.1-0.2v-4.1c0-0.1,0-0.2,0.1-0.2c0.1-0.1,0.1-0.1,0.2-0.1
				c0.1,0,0.1,0,0.2,0.1c0.1,0.1,0.1,0.1,0.1,0.2v0.8l-0.2,0.3c0-0.2,0.1-0.4,0.2-0.6c0.1-0.2,0.3-0.3,0.4-0.5
				c0.2-0.2,0.4-0.3,0.6-0.4C20.1-56.5,20.4-56.6,20.6-56.6z"/>
		</g>
	</g>
</g>
<g>
	<g transform="translate(89.273328, 98.502907)">
		<g>
			<path class="st2" d="M21.6-56.6c0.3,0,0.5,0.1,0.8,0.1c0.2,0.1,0.4,0.2,0.6,0.4c0.2,0.1,0.3,0.3,0.4,0.5c0.1,0.2,0.1,0.3,0.1,0.5
				l-0.2-0.2v-0.9c0-0.1,0-0.2,0.1-0.2c0.1-0.1,0.1-0.1,0.2-0.1s0.1,0,0.2,0.1c0.1,0.1,0.1,0.1,0.1,0.2v4c0,0.5-0.1,0.9-0.3,1.3
				c-0.2,0.3-0.5,0.6-0.8,0.8c-0.3,0.2-0.7,0.3-1.2,0.3c-0.2,0-0.5,0-0.7-0.1c-0.2-0.1-0.4-0.1-0.6-0.2c-0.2-0.1-0.3-0.2-0.3-0.3
				C20-50.6,20-50.6,20-50.7c0,0,0-0.1,0.1-0.1c0.1,0,0.1-0.1,0.2,0c0.1,0,0.2,0.1,0.3,0.1c0.1,0,0.2,0,0.3,0.1
				c0.1,0,0.2,0.1,0.4,0.1c0.1,0,0.3,0,0.5,0c0.6,0,1-0.2,1.3-0.5c0.3-0.3,0.5-0.7,0.5-1.3V-53l0.1,0c-0.1,0.2-0.1,0.4-0.3,0.6
				c-0.1,0.2-0.3,0.3-0.5,0.4c-0.2,0.1-0.3,0.2-0.5,0.3c-0.2,0.1-0.4,0.1-0.6,0.1c-0.4,0-0.8-0.1-1.2-0.3c-0.3-0.2-0.6-0.5-0.8-0.9
				c-0.2-0.4-0.3-0.8-0.3-1.3c0-0.5,0.1-0.9,0.3-1.3c0.2-0.4,0.5-0.7,0.8-0.9C20.8-56.5,21.2-56.6,21.6-56.6z M21.7-56.1
				c-0.3,0-0.6,0.1-0.9,0.3c-0.3,0.2-0.5,0.4-0.6,0.7c-0.1,0.3-0.2,0.6-0.2,1c0,0.4,0.1,0.7,0.2,1c0.2,0.3,0.4,0.5,0.6,0.7
				c0.3,0.2,0.6,0.3,0.9,0.3s0.6-0.1,0.9-0.3c0.3-0.2,0.5-0.4,0.6-0.7c0.2-0.3,0.3-0.6,0.3-1c0-0.4-0.1-0.7-0.3-1
				c-0.2-0.3-0.4-0.5-0.6-0.7C22.3-56,22-56.1,21.7-56.1z"/>
		</g>
	</g>
</g>
<g>
	<g transform="translate(93.583798, 98.502907)">
	</g>
</g>
<g>
	<g transform="translate(95.469625, 98.502907)">
		<g>
			<path class="st2" d="M22.5-52.1c0,0.1,0,0.2-0.1,0.2c-0.1,0.1-0.1,0.1-0.2,0.1c-0.1,0-0.2,0-0.2-0.1c0-0.1-0.1-0.1-0.1-0.2v-5.9
				c0-0.1,0-0.1,0.1-0.2c0.1-0.1,0.1-0.1,0.2-0.1c0.1,0,0.1,0,0.2,0.1c0.1,0.1,0.1,0.1,0.1,0.2V-52.1z"/>
		</g>
	</g>
</g>
<g>
	<g transform="translate(97.196573, 98.502907)">
		<g>
			<path class="st2" d="M26.2-58.6c0.1,0,0.1,0,0.2,0.1c0.1,0,0.1,0.1,0.1,0.2v6.3c0,0.1,0,0.1-0.1,0.2c-0.1,0.1-0.1,0.1-0.2,0.1
				c-0.1,0-0.2,0-0.2-0.1c0-0.1-0.1-0.1-0.1-0.2v-1.1l0.1-0.1c0,0.2-0.1,0.3-0.1,0.5c-0.1,0.2-0.2,0.4-0.4,0.5
				c-0.2,0.2-0.4,0.3-0.6,0.4c-0.2,0.1-0.5,0.1-0.7,0.1c-0.4,0-0.8-0.1-1.1-0.3c-0.3-0.2-0.6-0.5-0.8-0.9c-0.2-0.4-0.3-0.8-0.3-1.3
				c0-0.5,0.1-0.9,0.3-1.3c0.2-0.4,0.4-0.7,0.8-0.9c0.3-0.2,0.7-0.3,1.1-0.3c0.3,0,0.5,0.1,0.7,0.1c0.2,0.1,0.4,0.2,0.6,0.4
				c0.2,0.2,0.3,0.3,0.4,0.5c0.1,0.2,0.1,0.4,0.1,0.6L25.9-55v-3.3c0-0.1,0-0.1,0.1-0.2C26-58.6,26.1-58.6,26.2-58.6z M24.3-52.2
				c0.3,0,0.6-0.1,0.9-0.3c0.3-0.2,0.4-0.4,0.6-0.7c0.2-0.3,0.2-0.6,0.2-1c0-0.4-0.1-0.7-0.2-1c-0.1-0.3-0.3-0.5-0.6-0.7
				c-0.3-0.2-0.5-0.3-0.9-0.3c-0.3,0-0.6,0.1-0.9,0.3c-0.3,0.2-0.5,0.4-0.6,0.7c-0.1,0.3-0.2,0.6-0.2,1c0,0.4,0.1,0.7,0.2,1
				c0.2,0.3,0.4,0.5,0.6,0.7C23.7-52.3,23.9-52.2,24.3-52.2z"/>
		</g>
	</g>
</g>
<g>
	<g transform="translate(101.382701, 98.502907)">
		<g>
			<path class="st2" d="M25.8-51.7c-0.5,0-0.9-0.1-1.3-0.3c-0.4-0.2-0.6-0.5-0.9-0.9c-0.2-0.4-0.3-0.8-0.3-1.3
				c0-0.5,0.1-0.9,0.3-1.3c0.2-0.4,0.5-0.7,0.8-0.9c0.3-0.2,0.7-0.3,1-0.3c0.3,0,0.5,0.1,0.8,0.1c0.3,0.1,0.5,0.2,0.7,0.4
				c0.2,0.2,0.4,0.4,0.5,0.7c0.1,0.3,0.2,0.6,0.2,0.9c0,0.1,0,0.1-0.1,0.2c-0.1,0.1-0.1,0.1-0.2,0.1h-3.7l-0.1-0.5h3.6l-0.1,0.1
				v-0.2c0-0.3-0.1-0.5-0.3-0.7c-0.2-0.2-0.3-0.4-0.6-0.5c-0.2-0.1-0.5-0.2-0.7-0.2c-0.2,0-0.4,0-0.6,0.1c-0.2,0.1-0.4,0.2-0.5,0.4
				c-0.2,0.2-0.3,0.4-0.4,0.6C24-54.7,24-54.5,24-54.1c0,0.4,0.1,0.7,0.2,1c0.2,0.3,0.4,0.5,0.6,0.7c0.3,0.2,0.6,0.3,1,0.3
				c0.2,0,0.4,0,0.6-0.1c0.2-0.1,0.3-0.2,0.5-0.3c0.1-0.1,0.2-0.2,0.3-0.3c0.1-0.1,0.1-0.1,0.2-0.1c0.1,0,0.1,0,0.2,0.1
				c0,0,0.1,0.1,0.1,0.2c0,0.1,0,0.1-0.1,0.2c-0.2,0.2-0.4,0.4-0.7,0.6C26.5-51.8,26.2-51.7,25.8-51.7z"/>
		</g>
	</g>
</g>
<g>
	<g transform="translate(105.285609, 98.502907)">
		<g>
			<path class="st2" d="M28.9-56.5c0.1,0,0.1,0,0.2,0.1c0.1,0.1,0.1,0.1,0.1,0.2v4.1c0,0.1,0,0.1-0.1,0.2c-0.1,0.1-0.1,0.1-0.2,0.1
				c-0.1,0-0.2,0-0.2-0.1c0-0.1-0.1-0.1-0.1-0.2v-1.1l0.1-0.1c0,0.2-0.1,0.3-0.1,0.5c-0.1,0.2-0.2,0.3-0.4,0.5
				c-0.2,0.2-0.4,0.3-0.6,0.4c-0.2,0.1-0.5,0.1-0.7,0.1c-0.4,0-0.8-0.1-1.1-0.3c-0.3-0.2-0.6-0.5-0.8-0.9c-0.2-0.4-0.3-0.8-0.3-1.3
				c0-0.5,0.1-0.9,0.3-1.3c0.2-0.4,0.4-0.6,0.8-0.9c0.3-0.2,0.7-0.3,1.1-0.3c0.3,0,0.5,0.1,0.7,0.1c0.2,0.1,0.4,0.2,0.6,0.4
				c0.2,0.2,0.3,0.3,0.4,0.5c0.1,0.2,0.1,0.4,0.1,0.6L28.6-55v-1.2c0-0.1,0-0.2,0.1-0.2C28.7-56.4,28.8-56.5,28.9-56.5z M27-52.2
				c0.3,0,0.6-0.1,0.9-0.3c0.3-0.2,0.4-0.4,0.6-0.7c0.2-0.3,0.2-0.6,0.2-1c0-0.4-0.1-0.7-0.2-1c-0.1-0.3-0.3-0.5-0.6-0.7
				c-0.3-0.2-0.5-0.3-0.9-0.3c-0.3,0-0.6,0.1-0.9,0.3c-0.3,0.2-0.5,0.4-0.6,0.7c-0.1,0.3-0.2,0.6-0.2,1c0,0.4,0.1,0.7,0.2,1
				c0.2,0.3,0.4,0.5,0.6,0.7C26.4-52.3,26.6-52.2,27-52.2z"/>
		</g>
	</g>
</g>
<g>
	<g transform="translate(109.471738, 98.502907)">
		<g>
			<path class="st2" d="M26.1-52.5c0-0.1-0.1-0.1-0.1-0.2c0-0.1,0-0.1,0.1-0.2c0.1,0,0.1-0.1,0.2-0.1c0.1,0,0.1,0,0.2,0.1
				c0.2,0.2,0.4,0.4,0.6,0.5c0.2,0.1,0.5,0.2,0.9,0.2c0.2,0,0.3,0,0.5-0.1c0.2-0.1,0.3-0.2,0.4-0.3c0.1-0.1,0.2-0.3,0.2-0.5
				c0-0.2-0.1-0.3-0.2-0.5c-0.1-0.1-0.3-0.2-0.4-0.3c-0.2-0.1-0.3-0.1-0.5-0.2c-0.2-0.1-0.4-0.1-0.6-0.2c-0.2-0.1-0.4-0.2-0.5-0.3
				c-0.2-0.1-0.3-0.2-0.4-0.4c-0.1-0.2-0.1-0.3-0.1-0.6c0-0.3,0.1-0.5,0.2-0.7c0.1-0.2,0.3-0.3,0.6-0.5c0.3-0.1,0.5-0.2,0.8-0.2
				c0.2,0,0.3,0,0.5,0.1c0.2,0,0.4,0.1,0.5,0.2c0.2,0.1,0.3,0.2,0.5,0.4c0.1,0.1,0.1,0.1,0.1,0.2c0,0.1,0,0.1-0.1,0.2
				c-0.1,0-0.1,0.1-0.2,0.1c-0.1,0-0.1,0-0.1-0.1c-0.2-0.2-0.3-0.3-0.5-0.4c-0.2-0.1-0.4-0.1-0.6-0.1c-0.2,0-0.3,0-0.5,0.1
				c-0.2,0.1-0.3,0.1-0.4,0.3c-0.1,0.1-0.1,0.3-0.1,0.5c0,0.2,0.1,0.3,0.2,0.4c0.1,0.1,0.3,0.2,0.4,0.3c0.2,0.1,0.4,0.1,0.6,0.2
				c0.2,0,0.4,0.1,0.6,0.2c0.2,0.1,0.3,0.2,0.5,0.3c0.1,0.1,0.3,0.2,0.3,0.4c0.1,0.2,0.1,0.3,0.1,0.6c0,0.3-0.1,0.5-0.2,0.7
				c-0.2,0.2-0.4,0.3-0.6,0.5c-0.3,0.1-0.5,0.1-0.8,0.1c-0.3,0-0.7-0.1-1-0.2C26.7-52,26.4-52.2,26.1-52.5z"/>
		</g>
	</g>
</g>
<g>
	<g transform="translate(112.711496, 98.502907)">
	</g>
</g>
<g>
	<g transform="translate(114.597323, 98.502907)">
		<g>
			<path class="st2" d="M30.2-51.8c-0.1,0-0.2,0-0.2-0.1c0-0.1-0.1-0.1-0.1-0.2v-5.9h0.6v5.9c0,0.1,0,0.1-0.1,0.2
				C30.3-51.8,30.3-51.8,30.2-51.8z M28-57.7c-0.1,0-0.1,0-0.2-0.1c-0.1-0.1-0.1-0.1-0.1-0.2c0-0.1,0-0.1,0.1-0.2
				c0.1-0.1,0.1-0.1,0.2-0.1h4.4c0.1,0,0.1,0,0.2,0.1c0.1,0,0.1,0.1,0.1,0.2c0,0.1,0,0.2-0.1,0.2c-0.1,0-0.1,0.1-0.2,0.1H28z"/>
		</g>
	</g>
</g>
<g>
	<g transform="translate(118.769635, 98.502907)">
		<g>
			<path class="st2" d="M33.9-54.1c0,0.5-0.1,0.9-0.3,1.3c-0.2,0.4-0.5,0.7-0.8,0.9c-0.3,0.2-0.8,0.3-1.2,0.3
				c-0.4,0-0.8-0.1-1.2-0.3c-0.3-0.2-0.6-0.5-0.8-0.9c-0.2-0.4-0.3-0.8-0.3-1.3c0-0.5,0.1-0.9,0.3-1.3c0.2-0.4,0.5-0.7,0.8-0.9
				c0.4-0.2,0.8-0.3,1.2-0.3c0.5,0,0.9,0.1,1.2,0.3c0.3,0.2,0.6,0.5,0.8,0.9C33.8-55,33.9-54.6,33.9-54.1z M33.3-54.1
				c0-0.4-0.1-0.7-0.2-1c-0.2-0.3-0.4-0.5-0.6-0.7c-0.3-0.2-0.6-0.3-0.9-0.3c-0.3,0-0.6,0.1-0.9,0.3c-0.3,0.2-0.5,0.4-0.6,0.7
				c-0.2,0.3-0.2,0.6-0.2,1s0.1,0.7,0.2,1c0.2,0.3,0.4,0.5,0.6,0.7c0.3,0.2,0.6,0.3,0.9,0.3c0.3,0,0.7-0.1,0.9-0.3
				c0.3-0.2,0.5-0.4,0.6-0.7C33.3-53.4,33.3-53.7,33.3-54.1z"/>
		</g>
	</g>
</g>
<g>
	<g transform="translate(122.941946, 98.502907)">
	</g>
</g>
<g>
	<g transform="translate(124.827773, 98.502907)">
		<g>
			<path class="st2" d="M35.2-52.3c0.1,0,0.1,0,0.2,0.1c0.1,0,0.1,0.1,0.1,0.2c0,0.1,0,0.1-0.1,0.2c-0.1,0.1-0.1,0.1-0.2,0.1H32
				c-0.1,0-0.2,0-0.2-0.1c0-0.1-0.1-0.1-0.1-0.2v-5.9c0-0.1,0-0.1,0.1-0.2c0.1-0.1,0.1-0.1,0.2-0.1c0.1,0,0.1,0,0.2,0.1
				c0.1,0.1,0.1,0.1,0.1,0.2v5.8l-0.2-0.1H35.2z"/>
		</g>
	</g>
</g>
<g>
	<g transform="translate(128.502727, 98.502907)">
		<g>
			<path class="st2" d="M33.3-52c0,0.1,0,0.1-0.1,0.2c-0.1,0.1-0.1,0.1-0.2,0.1c-0.1,0-0.1,0-0.2-0.1c-0.1-0.1-0.1-0.1-0.1-0.2v-4.3
				c0-0.1,0-0.1,0.1-0.2c0.1-0.1,0.1-0.1,0.2-0.1c0.1,0,0.2,0,0.2,0.1c0.1,0.1,0.1,0.1,0.1,0.2V-52z M33-57.2c-0.1,0-0.2,0-0.3-0.1
				c-0.1-0.1-0.1-0.1-0.1-0.3v-0.1c0-0.1,0-0.2,0.1-0.3c0.1-0.1,0.2-0.1,0.3-0.1s0.2,0,0.3,0.1c0.1,0.1,0.1,0.1,0.1,0.3v0.1
				c0,0.1,0,0.2-0.1,0.3C33.2-57.2,33.2-57.2,33-57.2z"/>
		</g>
	</g>
</g>
<g>
	<g transform="translate(129.981001, 98.502907)">
		<g>
			<path class="st2" d="M35-58.5c0.1,0,0.2,0,0.3,0c0.1,0,0.2,0.1,0.3,0.1c0.1,0,0.1,0.1,0.1,0.2c0,0.1,0,0.1-0.1,0.2
				c0,0.1-0.1,0.1-0.1,0.1c-0.1,0-0.2,0-0.3,0c-0.1,0-0.2-0.1-0.3-0.1c-0.1,0-0.3,0-0.4,0.1c-0.1,0.1-0.2,0.1-0.2,0.3
				c0,0.1-0.1,0.2-0.1,0.4v5.3c0,0.1,0,0.1-0.1,0.2c-0.1,0.1-0.1,0.1-0.2,0.1c-0.1,0-0.2,0-0.2-0.1c-0.1-0.1-0.1-0.1-0.1-0.2v-5.3
				c0-0.4,0.1-0.7,0.4-0.9C34.3-58.4,34.6-58.5,35-58.5z M35.3-56.4c0.1,0,0.1,0,0.2,0.1c0.1,0,0.1,0.1,0.1,0.2c0,0.1,0,0.1-0.1,0.2
				c0,0-0.1,0.1-0.2,0.1H33c-0.1,0-0.1,0-0.2-0.1c0-0.1-0.1-0.1-0.1-0.2c0-0.1,0-0.1,0.1-0.2c0.1,0,0.1-0.1,0.2-0.1H35.3z"/>
		</g>
	</g>
</g>
<g>
	<g transform="translate(132.467815, 98.502907)">
		<g>
			<path class="st2" d="M36.2-51.7c-0.5,0-0.9-0.1-1.3-0.3c-0.4-0.2-0.6-0.5-0.9-0.9c-0.2-0.4-0.3-0.8-0.3-1.3
				c0-0.5,0.1-0.9,0.3-1.3c0.2-0.4,0.5-0.7,0.8-0.9c0.3-0.2,0.7-0.3,1-0.3c0.3,0,0.5,0.1,0.8,0.1c0.3,0.1,0.5,0.2,0.7,0.4
				c0.2,0.2,0.4,0.4,0.5,0.7c0.1,0.3,0.2,0.6,0.2,0.9c0,0.1,0,0.1-0.1,0.2c-0.1,0.1-0.1,0.1-0.2,0.1h-3.7L34-54.6h3.6l-0.1,0.1v-0.2
				c0-0.3-0.1-0.5-0.3-0.7c-0.2-0.2-0.3-0.4-0.6-0.5c-0.2-0.1-0.5-0.2-0.7-0.2c-0.2,0-0.4,0-0.6,0.1c-0.2,0.1-0.4,0.2-0.5,0.4
				c-0.2,0.2-0.3,0.4-0.4,0.6c-0.1,0.2-0.1,0.5-0.1,0.8c0,0.4,0.1,0.7,0.2,1c0.2,0.3,0.4,0.5,0.6,0.7c0.3,0.2,0.6,0.3,1,0.3
				c0.2,0,0.4,0,0.6-0.1c0.2-0.1,0.3-0.2,0.5-0.3c0.1-0.1,0.2-0.2,0.3-0.3c0.1-0.1,0.1-0.1,0.2-0.1c0.1,0,0.1,0,0.2,0.1
				c0,0,0.1,0.1,0.1,0.2c0,0.1,0,0.1-0.1,0.2c-0.2,0.2-0.4,0.4-0.7,0.6C36.9-51.8,36.6-51.7,36.2-51.7z"/>
		</g>
	</g>
</g>
<g>
	<g transform="translate(136.370723, 98.502907)">
		<g>
			<path class="st2" d="M36.1-51.7c0,0.2-0.1,0.3-0.1,0.5c-0.1,0.2-0.2,0.3-0.4,0.4c-0.1,0.1-0.3,0.2-0.4,0.2c0,0-0.1,0-0.1-0.1
				c0,0-0.1-0.1-0.1-0.2c0-0.1,0-0.1,0.1-0.1c0.1,0,0.1,0,0.2-0.1c0.1-0.1,0.2-0.1,0.3-0.2c0.1-0.1,0.1-0.2,0.1-0.3
				c0-0.1,0-0.1-0.1-0.2c0,0-0.1-0.1-0.1-0.1c0,0-0.1,0-0.1,0c0,0-0.1,0-0.1,0c0,0-0.1-0.1-0.1-0.1c0,0,0-0.1,0-0.1
				c0-0.1,0.1-0.2,0.2-0.3c0.1-0.1,0.2-0.1,0.4-0.1c0.2,0,0.3,0.1,0.4,0.2C36.1-52,36.1-51.9,36.1-51.7z"/>
		</g>
	</g>
</g>
<g>
	<g transform="translate(137.710838, 98.502907)">
	</g>
</g>
<g>
	<g transform="translate(139.596664, 98.502907)">
		<g>
			<path class="st2" d="M39.2-58.2c0.4,0,0.8,0.1,1.2,0.3c0.3,0.2,0.6,0.4,0.9,0.7c0.2,0.3,0.4,0.7,0.5,1c0.1,0.4,0.2,0.8,0.2,1.2
				c0,0.6-0.1,1.1-0.3,1.6c-0.2,0.5-0.5,0.9-0.9,1.2c-0.4,0.3-0.9,0.4-1.5,0.4h-2.4c-0.1,0-0.1,0-0.2-0.1c-0.1-0.1-0.1-0.1-0.1-0.2
				v-5.9c0-0.1,0-0.1,0.1-0.2c0.1-0.1,0.1-0.1,0.2-0.1H39.2z M39.1-52.3c0.5,0,0.9-0.1,1.3-0.4c0.3-0.3,0.5-0.6,0.7-1
				c0.2-0.4,0.2-0.9,0.2-1.4c0-0.3,0-0.7-0.1-1c-0.1-0.3-0.2-0.6-0.4-0.9c-0.2-0.3-0.4-0.4-0.7-0.6c-0.3-0.1-0.6-0.2-1-0.2h-2
				l0.1-0.1v5.5l0-0.1H39.1z"/>
		</g>
	</g>
</g>
<g>
	<g transform="translate(144.56338, 98.502907)">
		<g>
			<path class="st2" d="M38.7-52c0,0.1,0,0.1-0.1,0.2c-0.1,0.1-0.1,0.1-0.2,0.1c-0.1,0-0.1,0-0.2-0.1c-0.1-0.1-0.1-0.1-0.1-0.2v-4.3
				c0-0.1,0-0.1,0.1-0.2c0.1-0.1,0.1-0.1,0.2-0.1c0.1,0,0.2,0,0.2,0.1c0.1,0.1,0.1,0.1,0.1,0.2V-52z M38.4-57.2
				c-0.1,0-0.2,0-0.3-0.1C38-57.3,38-57.4,38-57.5v-0.1c0-0.1,0-0.2,0.1-0.3c0.1-0.1,0.2-0.1,0.3-0.1s0.2,0,0.3,0.1
				c0.1,0.1,0.1,0.1,0.1,0.3v0.1c0,0.1,0,0.2-0.1,0.3C38.6-57.2,38.5-57.2,38.4-57.2z"/>
		</g>
	</g>
</g>
<g>
	<g transform="translate(146.041653, 98.502907)">
		<g>
			<path class="st2" d="M40.6-56.6c0.3,0,0.5,0.1,0.8,0.1c0.2,0.1,0.4,0.2,0.6,0.4c0.2,0.1,0.3,0.3,0.4,0.5c0.1,0.2,0.1,0.3,0.1,0.5
				l-0.2-0.2v-0.9c0-0.1,0-0.2,0.1-0.2c0.1-0.1,0.1-0.1,0.2-0.1s0.1,0,0.2,0.1c0.1,0.1,0.1,0.1,0.1,0.2v4c0,0.5-0.1,0.9-0.3,1.3
				c-0.2,0.3-0.5,0.6-0.8,0.8c-0.3,0.2-0.7,0.3-1.2,0.3c-0.2,0-0.5,0-0.7-0.1c-0.2-0.1-0.4-0.1-0.6-0.2c-0.2-0.1-0.3-0.2-0.3-0.3
				c-0.1-0.1-0.1-0.1-0.1-0.2c0,0,0-0.1,0.1-0.1c0.1,0,0.1-0.1,0.2,0c0.1,0,0.2,0.1,0.3,0.1c0.1,0,0.2,0,0.3,0.1
				c0.1,0,0.2,0.1,0.4,0.1c0.1,0,0.3,0,0.5,0c0.6,0,1-0.2,1.3-0.5c0.3-0.3,0.5-0.7,0.5-1.3V-53l0.1,0c-0.1,0.2-0.1,0.4-0.3,0.6
				c-0.1,0.2-0.3,0.3-0.5,0.4c-0.2,0.1-0.3,0.2-0.5,0.3c-0.2,0.1-0.4,0.1-0.6,0.1c-0.4,0-0.8-0.1-1.2-0.3c-0.3-0.2-0.6-0.5-0.8-0.9
				c-0.2-0.4-0.3-0.8-0.3-1.3c0-0.5,0.1-0.9,0.3-1.3c0.2-0.4,0.5-0.7,0.8-0.9C39.8-56.5,40.1-56.6,40.6-56.6z M40.6-56.1
				c-0.3,0-0.6,0.1-0.9,0.3c-0.3,0.2-0.5,0.4-0.6,0.7c-0.1,0.3-0.2,0.6-0.2,1c0,0.4,0.1,0.7,0.2,1c0.2,0.3,0.4,0.5,0.6,0.7
				c0.3,0.2,0.6,0.3,0.9,0.3s0.6-0.1,0.9-0.3c0.3-0.2,0.5-0.4,0.6-0.7c0.2-0.3,0.3-0.6,0.3-1c0-0.4-0.1-0.7-0.3-1
				c-0.2-0.3-0.4-0.5-0.6-0.7C41.3-56,41-56.1,40.6-56.1z"/>
		</g>
	</g>
</g>
<g>
	<g transform="translate(150.352123, 98.502907)">
		<g>
			<path class="st2" d="M40.6-52c0,0.1,0,0.1-0.1,0.2c-0.1,0.1-0.1,0.1-0.2,0.1c-0.1,0-0.1,0-0.2-0.1C40-51.9,40-52,40-52v-4.3
				c0-0.1,0-0.1,0.1-0.2c0.1-0.1,0.1-0.1,0.2-0.1c0.1,0,0.2,0,0.2,0.1c0.1,0.1,0.1,0.1,0.1,0.2V-52z M40.3-57.2
				c-0.1,0-0.2,0-0.3-0.1c-0.1-0.1-0.1-0.1-0.1-0.3v-0.1c0-0.1,0-0.2,0.1-0.3c0.1-0.1,0.2-0.1,0.3-0.1s0.2,0,0.3,0.1
				c0.1,0.1,0.1,0.1,0.1,0.3v0.1c0,0.1,0,0.2-0.1,0.3C40.5-57.2,40.4-57.2,40.3-57.2z"/>
		</g>
	</g>
</g>
<g>
	<g transform="translate(151.830397, 98.502907)">
		<g>
			<path class="st2" d="M40.2-56.5h2.1c0.1,0,0.1,0,0.2,0.1c0.1,0.1,0.1,0.1,0.1,0.2c0,0.1,0,0.1-0.1,0.2c0,0-0.1,0.1-0.2,0.1h-2.1
				c-0.1,0-0.1,0-0.2-0.1c0-0.1-0.1-0.1-0.1-0.2c0-0.1,0-0.1,0.1-0.2C40.1-56.4,40.2-56.5,40.2-56.5z M41.2-57.7
				c0.1,0,0.1,0,0.2,0.1c0.1,0.1,0.1,0.1,0.1,0.2v4.6c0,0.2,0,0.3,0.1,0.4c0.1,0.1,0.1,0.1,0.2,0.2c0.1,0,0.1,0,0.2,0
				c0,0,0.1,0,0.1,0c0,0,0.1,0,0.1,0c0.1,0,0.1,0,0.1,0.1c0,0,0.1,0.1,0.1,0.1c0,0.1-0.1,0.2-0.1,0.2c-0.1,0.1-0.2,0.1-0.4,0.1
				c-0.1,0-0.1,0-0.3,0c-0.1,0-0.2,0-0.3-0.1c-0.1-0.1-0.2-0.2-0.3-0.3c-0.1-0.2-0.1-0.4-0.1-0.6v-4.6c0-0.1,0-0.1,0.1-0.2
				C41-57.7,41.1-57.7,41.2-57.7z"/>
		</g>
	</g>
</g>
<g>
	<g transform="translate(154.17214, 98.502907)">
		<g>
			<path class="st2" d="M45.2-56.5c0.1,0,0.1,0,0.2,0.1c0.1,0.1,0.1,0.1,0.1,0.2v4.1c0,0.1,0,0.1-0.1,0.2c-0.1,0.1-0.1,0.1-0.2,0.1
				c-0.1,0-0.2,0-0.2-0.1c0-0.1-0.1-0.1-0.1-0.2v-1.1l0.1-0.1c0,0.2-0.1,0.3-0.1,0.5c-0.1,0.2-0.2,0.3-0.4,0.5
				c-0.2,0.2-0.4,0.3-0.6,0.4c-0.2,0.1-0.5,0.1-0.7,0.1c-0.4,0-0.8-0.1-1.1-0.3c-0.3-0.2-0.6-0.5-0.8-0.9c-0.2-0.4-0.3-0.8-0.3-1.3
				c0-0.5,0.1-0.9,0.3-1.3c0.2-0.4,0.4-0.6,0.8-0.9c0.3-0.2,0.7-0.3,1.1-0.3c0.3,0,0.5,0.1,0.7,0.1c0.2,0.1,0.4,0.2,0.6,0.4
				c0.2,0.2,0.3,0.3,0.4,0.5c0.1,0.2,0.1,0.4,0.1,0.6L44.9-55v-1.2c0-0.1,0-0.2,0.1-0.2C45-56.4,45.1-56.5,45.2-56.5z M43.3-52.2
				c0.3,0,0.6-0.1,0.9-0.3c0.3-0.2,0.4-0.4,0.6-0.7c0.2-0.3,0.2-0.6,0.2-1c0-0.4-0.1-0.7-0.2-1c-0.1-0.3-0.3-0.5-0.6-0.7
				c-0.3-0.2-0.5-0.3-0.9-0.3c-0.3,0-0.6,0.1-0.9,0.3c-0.3,0.2-0.5,0.4-0.6,0.7c-0.1,0.3-0.2,0.6-0.2,1c0,0.4,0.1,0.7,0.2,1
				c0.2,0.3,0.4,0.5,0.6,0.7C42.7-52.3,42.9-52.2,43.3-52.2z"/>
		</g>
	</g>
</g>
<g>
	<g transform="translate(158.358268, 98.502907)">
		<g>
			<path class="st2" d="M43.3-52c0,0.1,0,0.1-0.1,0.2c-0.1,0.1-0.1,0.1-0.2,0.1c-0.1,0-0.2,0-0.2-0.1c0-0.1-0.1-0.1-0.1-0.2v-6.3
				c0-0.1,0-0.1,0.1-0.2c0.1-0.1,0.1-0.1,0.2-0.1c0.1,0,0.1,0,0.2,0.1c0.1,0.1,0.1,0.1,0.1,0.2V-52z"/>
		</g>
	</g>
</g>
<g>
	<g transform="translate(159.947066, 98.502907)">
		<g>
			<path class="st2" d="M43.8-52c0,0.1,0,0.1-0.1,0.2c-0.1,0.1-0.1,0.1-0.2,0.1c-0.1,0-0.2,0-0.2-0.1c0-0.1-0.1-0.1-0.1-0.2v-6.3
				c0-0.1,0-0.1,0.1-0.2c0.1-0.1,0.1-0.1,0.2-0.1c0.1,0,0.1,0,0.2,0.1c0.1,0.1,0.1,0.1,0.1,0.2V-52z"/>
		</g>
	</g>
</g>
<g>
	<g transform="translate(161.535865, 98.502907)">
		<g>
			<path class="st2" d="M47.3-56.6c0.1,0,0.2,0,0.2,0.1c0.1,0.1,0.1,0.1,0.1,0.2v4.1c0,0.5-0.1,0.9-0.3,1.3
				c-0.2,0.3-0.5,0.6-0.8,0.8c-0.3,0.2-0.7,0.3-1.1,0.3c-0.3,0-0.5,0-0.7-0.1c-0.2-0.1-0.4-0.1-0.5-0.2c-0.1,0-0.1-0.1-0.2-0.2
				c0-0.1,0-0.1,0-0.2c0-0.1,0.1-0.2,0.1-0.2c0.1,0,0.1,0,0.2,0c0.1,0.1,0.2,0.1,0.4,0.2c0.2,0.1,0.4,0.1,0.7,0.1
				c0.3,0,0.6-0.1,0.9-0.2c0.3-0.1,0.4-0.3,0.6-0.6c0.1-0.3,0.2-0.6,0.2-0.9v-0.7l0.1,0.2c-0.1,0.2-0.2,0.3-0.4,0.5
				c-0.2,0.1-0.4,0.3-0.6,0.3c-0.2,0.1-0.4,0.1-0.7,0.1c-0.4,0-0.7-0.1-0.9-0.2c-0.2-0.2-0.4-0.4-0.5-0.6c-0.1-0.3-0.2-0.6-0.2-0.9
				v-2.8c0-0.1,0-0.1,0.1-0.2c0.1-0.1,0.1-0.1,0.2-0.1s0.1,0,0.2,0.1c0.1,0.1,0.1,0.1,0.1,0.2v2.8c0,0.4,0.1,0.8,0.3,1
				c0.2,0.2,0.5,0.4,0.9,0.4c0.3,0,0.5-0.1,0.7-0.2c0.2-0.1,0.4-0.3,0.5-0.5c0.1-0.2,0.2-0.4,0.2-0.7v-2.8c0-0.1,0-0.1,0.1-0.2
				C47.1-56.5,47.2-56.6,47.3-56.6z"/>
		</g>
	</g>
</g>
</svg>
