<svg width="250" height="244" viewBox="0 0 250 244" fill="none" xmlns="http://www.w3.org/2000/svg">
    <g clip-path="url(#clip0_1_3830)">
        <path
            d="M158.71 54.8748H91.3462C89.8111 54.8766 88.3394 55.4872 87.2539 56.5726C86.1684 57.6579 85.5578 59.1294 85.5559 60.6643V210.363L84.7839 210.598L68.2584 215.658C67.4752 215.897 66.6292 215.815 65.9063 215.431C65.1833 215.047 64.6423 214.391 64.4021 213.609L15.2463 53.0646C15.0071 52.2815 15.0886 51.4354 15.473 50.7124C15.8574 49.9894 16.5131 49.4486 17.2961 49.2087L42.7619 41.4121L116.588 18.8175L142.054 11.0209C142.441 10.9016 142.848 10.86 143.252 10.8982C143.656 10.9365 144.048 11.0541 144.406 11.2441C144.764 11.4341 145.082 11.6928 145.34 12.0056C145.598 12.3183 145.791 12.6788 145.91 13.0665L158.475 54.1028L158.71 54.8748Z"
            fill="#F2F2F2" />
        <path
            d="M173.409 54.1022L158.266 4.64406C158.014 3.81999 157.602 3.05364 157.054 2.3888C156.505 1.72396 155.832 1.17365 155.07 0.769334C154.309 0.365014 153.476 0.114598 152.618 0.0324066C151.76 -0.0497851 150.895 0.0378572 150.071 0.290317L114.267 11.248L40.4452 33.8465L4.6419 44.8081C2.97867 45.3187 1.58603 46.4684 0.769649 48.0046C-0.0467273 49.5409 -0.220137 51.3383 0.287491 53.0022L52.045 222.03C52.4573 223.373 53.2894 224.549 54.4191 225.385C55.5487 226.22 56.9165 226.672 58.3217 226.673C58.9721 226.674 59.6188 226.576 60.2401 226.384L84.7833 218.873L85.5553 218.633V217.827L84.7833 218.062L60.0125 225.647C58.5444 226.094 56.9587 225.941 55.6033 225.221C54.2478 224.501 53.2334 223.273 52.7823 221.806L1.02881 52.7745C0.805335 52.0477 0.72745 51.2839 0.799607 50.527C0.871764 49.77 1.09254 49.0347 1.44931 48.3632C1.80607 47.6917 2.29182 47.0972 2.87872 46.6136C3.46563 46.1301 4.14216 45.767 4.86958 45.5453L40.6729 34.5837L114.495 11.9891L150.299 1.02753C150.85 0.859166 151.424 0.773322 152.001 0.772785C153.239 0.775564 154.443 1.17464 155.438 1.91156C156.433 2.64848 157.165 3.68452 157.529 4.86793L172.603 54.1022L172.842 54.8742H173.645L173.409 54.1022Z"
            fill="#3F3D56" />
        <path
            d="M47.3572 49.335C46.6132 49.3345 45.8889 49.0955 45.2907 48.6533C44.6924 48.211 44.2517 47.5887 44.0331 46.8776L39.061 30.6392C38.9274 30.203 38.881 29.7448 38.9245 29.2907C38.9681 28.8366 39.1006 28.3955 39.3147 27.9926C39.5287 27.5897 39.8201 27.233 40.172 26.9427C40.524 26.6524 40.9297 26.4343 41.366 26.3008L109.282 5.51102C110.163 5.2422 111.115 5.33388 111.928 5.76594C112.742 6.19799 113.35 6.93511 113.621 7.81553L118.593 24.0542C118.862 24.9351 118.77 25.8866 118.338 26.7C117.906 27.5133 117.169 28.1221 116.288 28.3927L48.3722 49.1825C48.0433 49.2834 47.7012 49.3348 47.3572 49.335Z"
            fill="#d9232d" />
        <path
            d="M73.403 17.3511C77.6669 17.3511 81.1234 13.8951 81.1234 9.63175C81.1234 5.36844 77.6669 1.91235 73.403 1.91235C69.1392 1.91235 65.6826 5.36844 65.6826 9.63175C65.6826 13.8951 69.1392 17.3511 73.403 17.3511Z"
            fill="#d9232d" />
        <path
            d="M73.4029 14.5199C76.1029 14.5199 78.2917 12.3314 78.2917 9.63175C78.2917 6.9321 76.1029 4.74359 73.4029 4.74359C70.7029 4.74359 68.5142 6.9321 68.5142 9.63175C68.5142 12.3314 70.7029 14.5199 73.4029 14.5199Z"
            fill="white" />
        <path
            d="M232.629 224.702H102.155C101.285 224.701 100.451 224.355 99.8357 223.74C99.2205 223.124 98.8745 222.291 98.8735 221.421V65.103C98.8745 64.2332 99.2205 63.3993 99.8356 62.7842C100.451 62.1692 101.285 61.8232 102.155 61.8223H232.629C233.499 61.8233 234.333 62.1692 234.948 62.7843C235.563 63.3993 235.909 64.2332 235.91 65.103V221.421C235.909 222.291 235.563 223.124 234.948 223.739C234.333 224.355 233.499 224.701 232.629 224.702Z"
            fill="#E6E6E6" />
        <path
            d="M172.603 54.1028H91.346C89.6063 54.1053 87.9386 54.7974 86.7085 56.0274C85.4783 57.2574 84.7862 58.9249 84.7837 60.6643V218.063L85.5557 217.827V60.6643C85.5576 59.1294 86.1682 57.6579 87.2537 56.5726C88.3392 55.4872 89.8109 54.8767 91.346 54.8748H172.842L172.603 54.1028ZM243.438 54.1028H91.346C89.6063 54.1053 87.9386 54.7974 86.7085 56.0274C85.4783 57.2574 84.7862 58.9249 84.7837 60.6643V237.438C84.7862 239.178 85.4783 240.845 86.7085 242.075C87.9386 243.305 89.6063 243.998 91.346 244H243.438C245.177 243.998 246.845 243.305 248.075 242.075C249.305 240.845 249.997 239.178 250 237.438V60.6643C249.997 58.9249 249.305 57.2574 248.075 56.0274C246.845 54.7974 245.177 54.1053 243.438 54.1028ZM249.228 237.438C249.226 238.973 248.615 240.445 247.53 241.53C246.444 242.616 244.973 243.226 243.438 243.228H91.346C89.8109 243.226 88.3392 242.616 87.2537 241.53C86.1682 240.445 85.5576 238.973 85.5557 237.438V60.6643C85.5576 59.1294 86.1682 57.6579 87.2537 56.5726C88.3392 55.4872 89.8109 54.8767 91.346 54.8748H243.438C244.973 54.8767 246.444 55.4872 247.53 56.5726C248.615 57.6579 249.226 59.1294 249.228 60.6643V237.438Z"
            fill="#3F3D56" />
        <path
            d="M202.906 71.0855H131.878C130.957 71.0845 130.074 70.7182 129.423 70.0669C128.771 69.4157 128.405 68.5328 128.404 67.6118V50.6291C128.405 49.7082 128.771 48.8252 129.423 48.174C130.074 47.5227 130.957 47.1564 131.878 47.1554H202.906C203.827 47.1564 204.71 47.5227 205.361 48.174C206.013 48.8252 206.379 49.7082 206.38 50.6291V67.6118C206.379 68.5328 206.013 69.4157 205.361 70.0669C204.71 70.7182 203.827 71.0845 202.906 71.0855Z"
            fill="#d9232d" />
        <path
            d="M167.392 48.3133C171.656 48.3133 175.112 44.8572 175.112 40.5939C175.112 36.3306 171.656 32.8745 167.392 32.8745C163.128 32.8745 159.672 36.3306 159.672 40.5939C159.672 44.8572 163.128 48.3133 167.392 48.3133Z"
            fill="#d9232d" />
        <path
            d="M167.392 45.2958C169.989 45.2958 172.094 43.1907 172.094 40.5939C172.094 37.9972 169.989 35.8921 167.392 35.8921C164.795 35.8921 162.689 37.9972 162.689 40.5939C162.689 43.1907 164.795 45.2958 167.392 45.2958Z"
            fill="white" />
    </g>
    <defs>
        <clipPath id="clip0_1_3830">
            <rect width="250" height="244" fill="white" />
        </clipPath>
    </defs>
</svg>