<svg width="48" height="48" viewBox="0 0 48 48" fill="none" xmlns="http://www.w3.org/2000/svg">
<path d="M23.9803 42.2913L10.9122 38.6635L8 6H39.9998L37.0846 38.6584L23.9803 42.2913Z" fill="#264DE4"/>
<path d="M34.5887 36.5788L37.08 8.67072H23.9999V39.5145L34.5887 36.5788Z" fill="#2965F1"/>
<path d="M14.6761 20.7852L15.0352 24.7912H24V20.7852H14.6761Z" fill="#EBEBEB"/>
<path d="M13.9546 12.6768L14.3188 16.6829H23.9999V12.6768H13.9546Z" fill="#EBEBEB"/>
<path d="M24 31.1893L23.9824 31.194L19.5209 29.9893L19.2357 26.7943H15.2142L15.7755 33.0843L23.9816 35.3624L24 35.3573V31.1893Z" fill="#EBEBEB"/>
<path d="M33.2981 20.7852L34.0213 12.6768H23.9861V16.6829H29.631L29.2665 20.7852H23.9861V24.7912H28.9191L28.4541 29.9867L23.9861 31.1926V35.3604L32.1987 33.0843L32.259 32.4075L33.2003 21.8609L33.2981 20.7852Z" fill="white"/>
</svg>
