<svg width="48" height="48" viewBox="0 0 48 48" fill="none" xmlns="http://www.w3.org/2000/svg">
<path d="M9.46057 36.2737L14.384 4.76934C14.4442 4.38296 14.7447 4.07838 15.1302 4.01289C15.5157 3.94739 15.8999 4.13582 16.0842 4.48065L21.1759 13.9774L23.2054 10.1132C23.3626 9.81443 23.6724 9.62735 24.0101 9.62735C24.3477 9.62735 24.6575 9.81443 24.8147 10.1132L38.5553 36.2736H9.46057V36.2737Z" fill="#FFA000"/>
<path d="M26.4697 24.0016L21.1735 13.9729L9.46057 36.2737L26.4697 24.0016Z" fill="#F57C00"/>
<path d="M38.5555 36.2737L34.7845 12.9386C34.7275 12.6035 34.4884 12.3282 34.1645 12.2245C33.8407 12.1207 33.4862 12.2071 33.2457 12.4473L9.46057 36.2733L22.6215 43.6539C23.4479 44.1154 24.4545 44.1154 25.2809 43.6539L38.5555 36.2733V36.2737Z" fill="#FFCA28"/>
<path d="M34.7844 12.9386C34.7274 12.6035 34.4883 12.3283 34.1644 12.2245C33.8405 12.1207 33.4861 12.2071 33.2456 12.4474L28.5248 17.1801L24.8126 10.1131C24.6554 9.81428 24.3455 9.6272 24.0079 9.6272C23.6703 9.6272 23.3604 9.81428 23.2032 10.1131L21.1737 13.9772L16.0818 4.48066C15.8972 4.13573 15.5125 3.94761 15.1265 4.01359C14.7406 4.07957 14.4411 4.38492 14.3816 4.7716L9.46045 36.2737H9.44458L9.46045 36.2919L9.59 36.3555L33.2387 12.6795C33.4791 12.438 33.8344 12.3511 34.1592 12.4546C34.4839 12.558 34.7235 12.8344 34.7799 13.1705L38.519 36.2964L38.5554 36.2736L34.7844 12.9386L34.7844 12.9386ZM9.50363 36.2305L14.3839 4.99438C14.4433 4.60771 14.7435 4.30236 15.1291 4.23638C15.5148 4.1704 15.8994 4.35846 16.0844 4.70345L21.1758 14.2002L23.2053 10.336C23.3625 10.0372 23.6723 9.85014 24.0099 9.85014C24.3476 9.85014 24.6574 10.0372 24.8146 10.336L28.4515 17.2529L9.50342 36.2305H9.50363Z" fill="white" fill-opacity="0.2"/>
<path opacity="0.2" d="M25.2809 43.4315C24.4545 43.8929 23.448 43.8929 22.6215 43.4315L9.4924 36.0714L9.46057 36.2738L22.6215 43.6521C23.4479 44.1135 24.4545 44.1135 25.2809 43.6521L38.5555 36.2738L38.5214 36.0646L25.2809 43.4316V43.4315Z" fill="#A52714"/>
<path d="M34.7467 12.9435C34.69 12.6085 34.4516 12.3331 34.1289 12.2299C33.8062 12.1268 33.453 12.2125 33.2133 12.4527L28.5087 17.1831L24.8098 10.1193C24.6531 9.82067 24.3444 9.63365 24.008 9.63365C23.6715 9.63365 23.3628 9.82067 23.2061 10.1193L21.1834 13.9818L16.1096 4.48918C15.9256 4.14441 15.5423 3.95632 15.158 4.02233C14.7737 4.08834 14.4746 4.39344 14.4153 4.78003L9.51135 36.2683L22.6263 43.6434C23.4498 44.1046 24.4528 44.1046 25.2764 43.6434L38.5046 36.2683L34.7467 12.9434V12.9435Z" fill="url(#paint0_linear_106_672)"/>
<defs>
<linearGradient id="paint0_linear_106_672" x1="8.49949" y1="10.8139" x2="44.6804" y2="29.8989" gradientUnits="userSpaceOnUse">
<stop stop-color="white" stop-opacity="0.1"/>
<stop offset="0.14" stop-color="white" stop-opacity="0.08"/>
<stop offset="0.61" stop-color="white" stop-opacity="0.02"/>
<stop offset="1" stop-color="white" stop-opacity="0"/>
</linearGradient>
</defs>
</svg>
