<svg width="48" height="48" viewBox="0 0 48 48" fill="none" xmlns="http://www.w3.org/2000/svg">
<path d="M41.1693 5L38.0564 39.8725L24.0637 43.7517L10.1096 39.878L7 5H41.1693Z" fill="#E44D26"/>
<path d="M24.0847 40.7866L35.3915 37.6519L38.0517 7.85178H24.0847V40.7866Z" fill="#F16529"/>
<path d="M24.0846 16.4071H18.0332L18.4241 20.7875H24.0846V25.0651H14.512L13.3583 12.1295H24.0846V16.4071Z" fill="#EBEBEB"/>
<path d="M14.7033 27.204H18.9973L19.3019 30.6156L24.0659 31.902L24.0847 31.897V36.3476L24.065 36.353L15.3026 33.9205L14.7033 27.204Z" fill="#EBEBEB"/>
<path d="M24.0698 16.4071V12.1295H34.7854L34.4024 16.4071H24.0698Z" fill="white"/>
<path d="M29.3373 25.0651H24.0698V20.7876H34.0131L33.9088 21.9362L32.8392 33.9205L24.0698 36.351V31.9006L28.8407 30.6129L29.3373 25.0651Z" fill="white"/>
</svg>
