<svg width="48" height="48" viewBox="0 0 48 48" fill="none" xmlns="http://www.w3.org/2000/svg">
<path d="M4.5509 5.57651H42.6489V43.2777H4.5509V5.57651Z" fill="#F7DF1E"/>
<path d="M43 43.625H4.19995V5.22916H43V43.625ZM4.92866 42.8995H42.2708V5.95464H4.92866V42.8995Z" fill="#EEEEEE"/>
<path d="M30.1855 35.1674C30.9547 36.4235 31.9554 37.3467 33.7256 37.3467C35.2126 37.3467 36.1623 36.6034 36.1623 35.5768C36.1623 34.3465 35.1867 33.9104 33.5498 33.1946L32.653 32.8099C30.0635 31.7069 28.3433 30.3247 28.3433 27.4029C28.3433 24.7116 30.3937 22.6629 33.5987 22.6629C35.8802 22.6629 37.5208 23.4571 38.7025 25.5361L35.9081 27.3302C35.293 26.2268 34.6293 25.7923 33.5987 25.7923C32.5475 25.7923 31.8814 26.4592 31.8814 27.3302C31.8814 28.4065 32.5483 28.8426 34.0878 29.5095L34.985 29.8938C38.034 31.2013 39.7554 32.5342 39.7554 35.5311C39.7554 38.7616 37.2176 40.5319 33.8089 40.5319C30.4761 40.5319 28.3231 38.9439 27.2695 36.8625L30.1855 35.1674ZM17.5092 35.4786C18.0731 36.4789 18.5859 37.3244 19.8187 37.3244C20.9976 37.3244 21.7413 36.8633 21.7413 35.0696V22.8674H25.3295V35.1177C25.3295 38.8332 23.151 40.5246 19.971 40.5246C17.0978 40.5246 15.4338 39.0377 14.5875 37.2468L17.5092 35.4786Z" fill="black"/>
</svg>
